<svg width="68" height="30" viewBox="0 0 68 30" fill="currentColor" xmlns="http://www.w3.org/2000/svg">
<path d="M2 12.7279L1.96701e-07 12.7279L-1.96701e-07 16.7279L2 16.7279L2 12.7279ZM67.4142 16.1421C68.1953 15.3611 68.1953 14.0947 67.4142 13.3137L54.6863 0.585774C53.9052 -0.195275 52.6389 -0.195275 51.8579 0.585774C51.0768 1.36682 51.0768 2.63315 51.8579 3.4142L63.1716 14.7279L51.8579 26.0416C51.0768 26.8227 51.0768 28.089 51.8579 28.87C52.6389 29.6511 53.9052 29.6511 54.6863 28.87L67.4142 16.1421ZM2 16.7279L66 16.7279L66 12.7279L2 12.7279L2 16.7279Z" fill="currentColor"/>
</svg>
